<svg xmlns="http://www.w3.org/2000/svg" viewBox="0 0 512 512" width="512" height="512">
  <defs>
    <linearGradient id="sky" x1="0" y1="0" x2="0" y2="1">
      <stop offset="0" stop-color="#b9dcf3"/><stop offset="0.55" stop-color="#dcd6f3"/><stop offset="1" stop-color="#f6e3ef"/>
    </linearGradient>
  </defs>
  <rect width="512" height="512" rx="112" fill="url(#sky)"/>
  <!-- lower tower: pink lit face, violet shaded face -->
  <polygon points="256,236 384,300 384,452 256,516 256,516" fill="#b294e0"/>
  <polygon points="256,236 128,300 128,452 256,516" fill="#f7b7c8"/>
  <!-- butter ledge -->
  <polygon points="256,196 404,270 256,344 108,270" fill="#fde8cf"/>
  <polygon points="108,270 256,344 256,366 108,292" fill="#fbd99a"/>
  <polygon points="404,270 256,344 256,366 404,292" fill="#e7c08f"/>
  <!-- upper block -->
  <polygon points="256,110 336,150 336,248 256,288" fill="#9e86dc"/>
  <polygon points="256,110 176,150 176,248 256,288" fill="#f3a6c0"/>
  <polygon points="256,70 350,117 256,164 162,117" fill="#fde3c8"/>
  <!-- arched window on the lit face -->
  <path d="M200,138 v-40 a14,14 0 0 1 28,0 v40 Z" fill="#fff3d6" transform="skewY(26.565)"/>
  <!-- rivets on the lower faces -->
  <g fill="#fbd99a">
    <ellipse cx="170" cy="392" rx="13" ry="15"/><ellipse cx="214" cy="414" rx="13" ry="15"/>
    <ellipse cx="298" cy="414" rx="13" ry="15"/><ellipse cx="342" cy="392" rx="13" ry="15"/>
  </g>
  <g fill="#7b6fd6">
    <ellipse cx="170" cy="392" rx="6" ry="7"/><ellipse cx="214" cy="414" rx="6" ry="7"/>
    <ellipse cx="298" cy="414" rx="6" ry="7"/><ellipse cx="342" cy="392" rx="6" ry="7"/>
  </g>
</svg>
